<?xml version="1.0" standalone="no"?>
<!DOCTYPE svg PUBLIC "-//W3C//DTD SVG 20010904//EN"
 "http://www.w3.org/TR/2001/REC-SVG-20010904/DTD/svg10.dtd">
<svg version="1.0" xmlns="http://www.w3.org/2000/svg"
 width="700.000000pt" height="700.000000pt" viewBox="0 0 700.000000 700.000000"
 preserveAspectRatio="xMidYMid meet">
<metadata>
Created by potrace 1.11, written by Peter Selinger 2001-2013
</metadata>
<g transform="translate(0.000000,700.000000) scale(0.100000,-0.100000)"
fill="#000000" stroke="none">
<path d="M3308 6995 c-2 -2 -43 -6 -93 -9 -49 -3 -99 -8 -110 -10 -11 -2 -51
-7 -90 -11 -38 -4 -72 -8 -75 -10 -3 -2 -26 -6 -50 -9 -164 -23 -582 -144
-714 -207 -22 -11 -43 -19 -47 -19 -18 0 -271 -128 -384 -193 -169 -98 -390
-253 -505 -354 -14 -12 -36 -31 -50 -43 -51 -43 -218 -210 -294 -292 -150
-165 -317 -395 -436 -603 -47 -82 -170 -327 -170 -339 0 -3 -11 -29 -24 -58
-109 -242 -211 -630 -242 -923 -26 -246 -26 -667 1 -826 2 -13 6 -46 9 -74 9
-78 23 -156 51 -285 61 -285 211 -679 350 -920 21 -36 46 -81 57 -100 48 -84
194 -294 277 -397 151 -187 301 -339 521 -527 34 -29 206 -155 255 -187 162
-106 295 -183 445 -256 264 -130 668 -256 955 -298 22 -3 54 -7 70 -10 35 -5
89 -11 195 -22 144 -14 588 -7 685 11 19 3 47 7 155 21 222 29 569 129 815
235 263 113 578 296 763 444 371 298 642 602 865 968 78 129 208 390 260 523
93 238 170 520 202 740 3 22 8 54 10 70 38 232 40 726 4 928 -5 32 -12 70 -14
85 -2 15 -11 65 -20 112 -9 47 -19 96 -21 110 -10 51 -56 218 -91 330 -200
637 -639 1257 -1192 1684 -76 59 -306 216 -316 216 -2 0 -29 16 -60 35 -125
81 -415 213 -620 285 -93 32 -358 106 -410 114 -16 2 -52 9 -80 14 -27 6 -70
13 -95 17 -25 3 -52 8 -60 10 -8 2 -48 7 -89 10 -41 4 -88 9 -105 11 -33 5
-483 13 -488 9z"/>
</g>
</svg>
